name C:\Users\Nicos\Documents\OpenSimProjects\SprintingProject\Study1\PredictiveResults\IC_pred_Sprinting_optimum_28-October-2023__10-02-52___HTD_Plus_6_p02_maxVel_01.mot
datacolumns 38
datarows 5
range 0.05600000 0.06022514
endheader
                time	/jointset/ground_pelvis/pelvis_tilt/value	/jointset/ground_pelvis/pelvis_list/value	/jointset/ground_pelvis/pelvis_rotation/value	/jointset/ground_pelvis/pelvis_tx/value	/jointset/ground_pelvis/pelvis_ty/value	/jointset/ground_pelvis/pelvis_tz/value	/jointset/hip_r/hip_flexion_r/value	/jointset/hip_r/hip_adduction_r/value	/jointset/hip_r/hip_rotation_r/value	/jointset/knee_r/knee_angle_r/value	/jointset/ankle_r/ankle_angle_r/value	/jointset/subtalar_r/subtalar_angle_r/value	/jointset/mtp_r/mtp_angle_r/value	/jointset/hip_l/hip_flexion_l/value	/jointset/hip_l/hip_adduction_l/value	/jointset/hip_l/hip_rotation_l/value	/jointset/knee_l/knee_angle_l/value	/jointset/ankle_l/ankle_angle_l/value	/jointset/subtalar_l/subtalar_angle_l/value	/jointset/mtp_l/mtp_angle_l/value	/jointset/back/lumbar_extension/value	/jointset/back/lumbar_bending/value	/jointset/back/lumbar_rotation/value	/jointset/acromial_r/arm_flex_r/value	/jointset/acromial_r/arm_add_r/value	/jointset/acromial_r/arm_rot_r/value	/jointset/elbow_r/elbow_flex_r/value	/jointset/radioulnar_r/pro_sup_r/value	/jointset/radius_hand_r/wrist_flex_r/value	/jointset/radius_hand_r/wrist_dev_r/value	/jointset/acromial_l/arm_flex_l/value	/jointset/acromial_l/arm_add_l/value	/jointset/acromial_l/arm_rot_l/value	/jointset/elbow_l/elbow_flex_l/value	/jointset/radioulnar_l/pro_sup_l/value	/jointset/radius_hand_l/wrist_flex_l/value	/jointset/radius_hand_l/wrist_dev_l/value	
          0.05600000	         -2.36801204	         -7.27698661	          5.07127877	          0.00000000	          0.99831215	          0.30245341	         37.31797062	          3.86208177	         -8.83879147	        -26.50855174	        -26.66866890	        -16.77558011	         -8.81680680	          4.23433400	        -15.31783923	          3.33521997	       -118.53295342	        -12.75282322	        -21.96470551	         -3.54915517	        -18.21568451	         10.76998431	         -7.01122743	        -29.50240473	        -24.28593473	        -14.68695525	         86.58234627	         69.85060443	        -23.37888583	          5.23619807	         -0.45028235	        -26.24000087	        -14.44095632	         73.51448874	         77.27693701	        -18.37224468	          5.09001398	
          0.05665511	         -2.47258672	         -7.29779191	          4.74991440	          0.00754915	          0.99811919	          0.30279347	         36.99884862	          4.11370217	         -8.61590653	        -26.02429210	        -26.39241904	        -17.04789055	         -8.49009502	          4.63034960	        -15.33145657	          3.12683663	       -119.00195226	        -12.57291423	        -22.13688822	         -3.50939871	        -18.15678930	         10.73892164	         -6.82531451	        -28.58368926	        -24.41903413	        -14.61645690	         86.71946186	         70.15030254	        -23.43275375	          5.23880723	         -0.90921985	        -26.23268843	        -14.53550915	         72.96502675	         77.03361169	        -18.48157377	          5.08785418	
          0.05872500	         -2.82324089	         -7.35454967	          3.70850994	          0.03139205	          0.99741770	          0.30387114	         36.00253250	          4.88978437	         -7.89586911	        -24.53809826	        -25.45693902	        -17.82542056	         -7.51567143	          5.91376146	        -15.38311377	          2.45499382	       -120.47410489	        -12.01494526	        -22.67008965	         -3.45382222	        -17.94488389	         10.63220833	         -6.20733414	        -25.63283992	        -24.81631811	        -14.36594600	         87.09126837	         71.10558998	        -23.61558774	          5.22637214	         -2.32767401	        -26.18393049	        -14.76887046	         71.29872768	         76.18394563	        -18.83838014	          5.13454261	
          0.06022514	         -3.09532229	         -7.38593401	          2.92889421	          0.04866364	          0.99682209	          0.30465348	         35.29161620	          5.43281601	         -7.35822230	        -23.50785753	        -24.73731519	        -18.29637223	         -6.87827907	          6.87260920	        -15.42906288	          1.95523355	       -121.53099967	        -11.61862730	        -23.04256495	         -3.48124005	        -17.76812177	         10.54721009	         -5.73002916	        -23.45615423	        -25.07886815	        -14.17064301	         87.31359287	         71.82784356	        -23.76006177	          5.20564153	         -3.33177264	        -26.12264916	        -14.88575389	         70.15956216	         75.55004275	        -19.10186085	          5.18833638	
          0.06022514	         -3.09532229	         -7.38593401	          2.92889421	          0.04866364	          0.99682209	          0.30465348	         35.29161620	          5.43281601	         -7.35822230	        -23.50785753	        -24.73731519	        -18.29637223	         -6.87827907	          6.87260920	        -15.42906288	          1.95523355	       -121.53099967	        -11.61862730	        -23.04256495	         -3.48124005	        -17.76812177	         10.54721009	         -5.73002916	        -23.45615423	        -25.07886815	        -14.17064301	         87.31359287	         71.82784356	        -23.76006177	          5.20564153	         -3.33177264	        -26.12264916	        -14.88575389	         70.15956216	         75.55004275	        -19.10186085	          5.18833638	
